<svg width="32" height="32" xmlns="http://www.w3.org/2000/svg">

 <g>
  <title>background</title>
  <rect fill="none" id="canvas_background" height="402" width="582" y="-1" x="-1"/>
 </g>
 <g>
  <title>Layer 1</title>
  <path id="svg_3" fill="#FFFFFF" d="m16,31.625c-8.616,0 -15.625,-7.01 -15.625,-15.625c0,-8.616 7.009,-15.625 15.625,-15.625c8.615,0 15.625,7.009 15.625,15.625c0,8.615 -7.01,15.625 -15.625,15.625z"/>
  <path id="svg_4" fill="#ffffff" d="m16,0.75c8.409,0 15.25,6.841 15.25,15.25s-6.841,15.25 -15.25,15.25s-15.25,-6.841 -15.25,-15.25s6.841,-15.25 15.25,-15.25m0,-0.75c-8.837,0 -16,7.163 -16,16c0,8.836 7.163,16 16,16s16,-7.164 16,-16c0,-8.837 -7.163,-16 -16,-16l0,0z"/>
  <path stroke="null" id="svg_5" fill="#3b5998" d="m12.879119,28.287234l4.933512,0l0,-11.940199l3.290796,0l0.435823,-4.114165l-3.726619,0l0.005364,-2.059765c0,-1.072794 0.101915,-1.64808 1.641375,-1.64808l2.057083,0l0,-4.115506l-3.292137,0c-3.954587,0 -5.345197,1.996738 -5.345197,5.353243l0,2.470108l-2.464745,0l0,4.115506l2.464745,0l0,11.938858z"/>
 </g>
</svg>